<?xml version="1.0" standalone="no"?>
<!DOCTYPE svg PUBLIC "-//W3C//DTD SVG 20010904//EN"
 "http://www.w3.org/TR/2001/REC-SVG-20010904/DTD/svg10.dtd">
<svg version="1.0" xmlns="http://www.w3.org/2000/svg"
 width="770.000000pt" height="770.000000pt" viewBox="0 0 770.000000 770.000000"
 preserveAspectRatio="xMidYMid meet">
<metadata>
Created by potrace 1.14, written by Peter Selinger 2001-2017
</metadata>
<g transform="translate(0.000000,770.000000) scale(0.100000,-0.100000)"
fill="#000000" stroke="none">
<path d="M3560 7694 c-593 -53 -1105 -206 -1583 -471 -347 -193 -608 -394
-898 -689 -569 -582 -923 -1301 -1051 -2134 -26 -170 -37 -751 -18 -939 115
-1136 738 -2174 1685 -2805 785 -524 1702 -739 2645 -620 475 60 966 222 1382
457 239 135 563 364 556 393 -2 7 -164 209 -361 449 -230 279 -363 433 -370
428 -7 -4 -39 -28 -72 -54 -175 -136 -465 -297 -692 -383 -594 -224 -1293
-224 -1886 1 -129 48 -317 138 -429 205 l-68 40 0 189 0 189 165 0 165 0 0
1210 0 1210 -165 0 -165 0 0 275 0 275 -85 0 -85 0 0 -275 0 -275 -165 0 -165
0 0 -1192 -1 -1193 -66 70 c-78 83 -210 258 -280 370 -206 331 -336 694 -389
1085 -21 153 -24 500 -5 645 81 632 341 1167 780 1605 422 421 928 673 1538
767 151 23 575 23 726 0 353 -54 672 -162 960 -325 l117 -67 0 -427 0 -428
-165 0 -165 0 0 -425 0 -425 -350 0 -350 0 0 145 0 145 -160 0 -160 0 0 470 0
470 -90 0 -90 0 0 -470 0 -470 -160 0 -160 0 0 -820 0 -820 160 0 160 0 0
-470 0 -470 90 0 90 0 0 470 0 470 160 0 160 0 0 100 0 100 515 0 515 0 0
-245 0 -245 85 0 85 0 0 245 0 245 1120 0 1120 0 0 353 c0 476 -18 696 -81
1003 -121 590 -382 1146 -762 1622 -116 146 -346 385 -492 511 -495 428 -1099
725 -1745 856 -251 51 -404 66 -715 70 -159 1 -310 1 -335 -1z m2035 -1796
c333 -285 598 -659 760 -1072 42 -107 115 -350 115 -383 0 -11 -65 -13 -345
-13 l-345 0 0 425 0 425 -165 0 -165 0 0 365 c0 345 1 365 18 356 9 -5 67 -51
127 -103z m-3365 -4079 l0 -130 -61 48 c-34 26 -100 85 -148 130 l-86 82 148
1 147 0 0 -131z"/>
</g>
</svg>
